<mxfile host="app.diagrams.net" agent="Mozilla/5.0 (Windows NT 10.0; Win64; x64) AppleWebKit/537.36 (KHTML, like Gecko) Chrome/135.0.0.0 Safari/537.36" version="26.2.14">
  <diagram name="Page-1" id="e7e014a7-5840-1c2e-5031-d8a46d1fe8dd">
    <mxGraphModel dx="1251" dy="660" grid="1" gridSize="10" guides="1" tooltips="1" connect="1" arrows="1" fold="1" page="1" pageScale="1" pageWidth="1169" pageHeight="826" background="none" math="0" shadow="0">
      <root>
        <mxCell id="0" />
        <mxCell id="1" parent="0" />
        <mxCell id="2" value="Разработчик" style="swimlane;whiteSpace=wrap" parent="1" vertex="1">
          <mxGeometry x="164.5" y="128" width="280" height="472" as="geometry" />
        </mxCell>
        <mxCell id="5" value="" style="ellipse;shape=startState;fillColor=#000000;strokeColor=#ff0000;" parent="2" vertex="1">
          <mxGeometry x="125" y="40" width="30" height="30" as="geometry" />
        </mxCell>
        <mxCell id="6" value="" style="edgeStyle=elbowEdgeStyle;elbow=horizontal;verticalAlign=bottom;endArrow=open;endSize=8;strokeColor=#FF0000;endFill=1;rounded=0" parent="2" edge="1">
          <mxGeometry x="100" y="40" as="geometry">
            <mxPoint x="140.5" y="110" as="targetPoint" />
            <mxPoint x="140" y="70" as="sourcePoint" />
          </mxGeometry>
        </mxCell>
        <mxCell id="YpI31M13oUeQ6oVRcX6k-41" value="Редактирование грамматики языка SiMPLE" style="rounded=1;whiteSpace=wrap;html=1;arcSize=40;fontColor=#000000;fillColor=#ffffc0;strokeColor=#ff0000;" vertex="1" parent="2">
          <mxGeometry x="80" y="112" width="120" height="40" as="geometry" />
        </mxCell>
        <mxCell id="YpI31M13oUeQ6oVRcX6k-54" style="edgeStyle=orthogonalEdgeStyle;shape=connector;rounded=0;orthogonalLoop=1;jettySize=auto;html=1;exitX=0.5;exitY=1;exitDx=0;exitDy=0;entryX=0.5;entryY=0;entryDx=0;entryDy=0;strokeColor=#b85450;align=center;verticalAlign=middle;fontFamily=Helvetica;fontSize=11;fontColor=default;labelBackgroundColor=default;endArrow=open;endFill=0;fillColor=#f8cecc;" edge="1" parent="2" source="YpI31M13oUeQ6oVRcX6k-52" target="YpI31M13oUeQ6oVRcX6k-53">
          <mxGeometry relative="1" as="geometry" />
        </mxCell>
        <mxCell id="YpI31M13oUeQ6oVRcX6k-52" value="Получить подтверждение" style="rounded=1;whiteSpace=wrap;html=1;arcSize=40;fontColor=#000000;fillColor=#ffffc0;strokeColor=#ff0000;" vertex="1" parent="2">
          <mxGeometry x="62.5" y="362" width="155" height="40" as="geometry" />
        </mxCell>
        <mxCell id="YpI31M13oUeQ6oVRcX6k-53" value="" style="ellipse;html=1;shape=endState;fillColor=#000000;strokeColor=#ff0000;fontFamily=Helvetica;fontSize=11;fontColor=default;labelBackgroundColor=default;" vertex="1" parent="2">
          <mxGeometry x="125" y="422" width="30" height="30" as="geometry" />
        </mxCell>
        <mxCell id="3" value="Система" style="swimlane;whiteSpace=wrap" parent="1" vertex="1">
          <mxGeometry x="445" y="128" width="280" height="472" as="geometry" />
        </mxCell>
        <mxCell id="YpI31M13oUeQ6oVRcX6k-43" value="Сохранить временные изменения" style="rounded=1;whiteSpace=wrap;html=1;arcSize=40;fontColor=#000000;fillColor=#ffffc0;strokeColor=#ff0000;" vertex="1" parent="3">
          <mxGeometry x="74.13" y="42" width="130" height="40" as="geometry" />
        </mxCell>
        <mxCell id="YpI31M13oUeQ6oVRcX6k-44" value="" style="edgeStyle=orthogonalEdgeStyle;html=1;verticalAlign=bottom;endArrow=open;endSize=8;strokeColor=#ff0000;rounded=0;entryX=0.5;entryY=0;entryDx=0;entryDy=0;" edge="1" source="YpI31M13oUeQ6oVRcX6k-43" parent="3" target="YpI31M13oUeQ6oVRcX6k-45">
          <mxGeometry relative="1" as="geometry">
            <mxPoint x="134.13" y="152" as="targetPoint" />
          </mxGeometry>
        </mxCell>
        <mxCell id="YpI31M13oUeQ6oVRcX6k-49" style="edgeStyle=orthogonalEdgeStyle;rounded=0;orthogonalLoop=1;jettySize=auto;html=1;exitX=0.5;exitY=1;exitDx=0;exitDy=0;entryX=0.5;entryY=0;entryDx=0;entryDy=0;fillColor=#f8cecc;strokeColor=#b85450;endArrow=open;endFill=0;" edge="1" parent="3" source="YpI31M13oUeQ6oVRcX6k-45" target="YpI31M13oUeQ6oVRcX6k-46">
          <mxGeometry relative="1" as="geometry" />
        </mxCell>
        <mxCell id="YpI31M13oUeQ6oVRcX6k-45" value="Запустить тесты для проверки корректности новой грамматики" style="rounded=1;whiteSpace=wrap;html=1;arcSize=40;fontColor=#000000;fillColor=#ffffc0;strokeColor=#ff0000;" vertex="1" parent="3">
          <mxGeometry x="45.38" y="102" width="187.5" height="40" as="geometry" />
        </mxCell>
        <mxCell id="YpI31M13oUeQ6oVRcX6k-46" value="Condition" style="rhombus;whiteSpace=wrap;html=1;fontColor=#000000;fillColor=#ffffc0;strokeColor=#ff0000;" vertex="1" parent="3">
          <mxGeometry x="99.13" y="182" width="80" height="40" as="geometry" />
        </mxCell>
        <mxCell id="YpI31M13oUeQ6oVRcX6k-47" value="нет" style="edgeStyle=orthogonalEdgeStyle;html=1;align=left;verticalAlign=bottom;endArrow=open;endSize=8;strokeColor=#ff0000;rounded=0;entryX=0.5;entryY=0;entryDx=0;entryDy=0;exitX=1;exitY=0.5;exitDx=0;exitDy=0;" edge="1" source="YpI31M13oUeQ6oVRcX6k-46" parent="3" target="YpI31M13oUeQ6oVRcX6k-56">
          <mxGeometry x="-1" relative="1" as="geometry">
            <mxPoint x="234.13" y="272" as="targetPoint" />
          </mxGeometry>
        </mxCell>
        <mxCell id="YpI31M13oUeQ6oVRcX6k-48" value="да" style="edgeStyle=orthogonalEdgeStyle;html=1;align=left;verticalAlign=top;endArrow=open;endSize=8;strokeColor=#ff0000;rounded=0;exitX=0;exitY=0.5;exitDx=0;exitDy=0;entryX=0.5;entryY=0;entryDx=0;entryDy=0;" edge="1" source="YpI31M13oUeQ6oVRcX6k-46" parent="3" target="YpI31M13oUeQ6oVRcX6k-50">
          <mxGeometry x="-0.5973" y="-20" relative="1" as="geometry">
            <mxPoint x="54.13" y="262" as="targetPoint" />
            <mxPoint as="offset" />
          </mxGeometry>
        </mxCell>
        <mxCell id="YpI31M13oUeQ6oVRcX6k-50" value="Сохранить обновленную грамматику" style="rounded=1;whiteSpace=wrap;html=1;arcSize=40;fontColor=#000000;fillColor=#ffffc0;strokeColor=#ff0000;" vertex="1" parent="3">
          <mxGeometry x="5" y="242" width="155" height="40" as="geometry" />
        </mxCell>
        <mxCell id="YpI31M13oUeQ6oVRcX6k-51" value="[Тесты пройдены]" style="text;html=1;align=center;verticalAlign=middle;resizable=0;points=[];autosize=1;strokeColor=none;fillColor=none;fontFamily=Helvetica;fontSize=11;fontColor=default;labelBackgroundColor=default;" vertex="1" parent="3">
          <mxGeometry x="84.13" y="142" width="110" height="30" as="geometry" />
        </mxCell>
        <mxCell id="YpI31M13oUeQ6oVRcX6k-56" value="Отобразить ошибки" style="rounded=1;whiteSpace=wrap;html=1;arcSize=40;fontColor=#000000;fillColor=#ffffc0;strokeColor=#ff0000;" vertex="1" parent="3">
          <mxGeometry x="140" y="285" width="120" height="40" as="geometry" />
        </mxCell>
        <mxCell id="YpI31M13oUeQ6oVRcX6k-42" value="" style="edgeStyle=orthogonalEdgeStyle;html=1;verticalAlign=bottom;endArrow=open;endSize=8;strokeColor=#ff0000;rounded=0;entryX=0;entryY=0.5;entryDx=0;entryDy=0;" edge="1" source="YpI31M13oUeQ6oVRcX6k-41" parent="1" target="YpI31M13oUeQ6oVRcX6k-43">
          <mxGeometry relative="1" as="geometry">
            <mxPoint x="279.5" y="340" as="targetPoint" />
            <Array as="points">
              <mxPoint x="420" y="260" />
              <mxPoint x="420" y="190" />
            </Array>
          </mxGeometry>
        </mxCell>
        <mxCell id="YpI31M13oUeQ6oVRcX6k-55" style="edgeStyle=orthogonalEdgeStyle;shape=connector;rounded=0;orthogonalLoop=1;jettySize=auto;html=1;exitX=0.5;exitY=1;exitDx=0;exitDy=0;entryX=0.5;entryY=0;entryDx=0;entryDy=0;strokeColor=#b85450;align=center;verticalAlign=middle;fontFamily=Helvetica;fontSize=11;fontColor=default;labelBackgroundColor=default;endArrow=open;endFill=0;fillColor=#f8cecc;" edge="1" parent="1" source="YpI31M13oUeQ6oVRcX6k-50" target="YpI31M13oUeQ6oVRcX6k-52">
          <mxGeometry relative="1" as="geometry">
            <Array as="points">
              <mxPoint x="528" y="470" />
              <mxPoint x="305" y="470" />
            </Array>
          </mxGeometry>
        </mxCell>
        <mxCell id="YpI31M13oUeQ6oVRcX6k-57" style="edgeStyle=orthogonalEdgeStyle;shape=connector;rounded=0;orthogonalLoop=1;jettySize=auto;html=1;exitX=0.5;exitY=1;exitDx=0;exitDy=0;entryX=0.5;entryY=0;entryDx=0;entryDy=0;strokeColor=#b85450;align=center;verticalAlign=middle;fontFamily=Helvetica;fontSize=11;fontColor=default;labelBackgroundColor=default;endArrow=open;endFill=0;fillColor=#f8cecc;" edge="1" parent="1" source="YpI31M13oUeQ6oVRcX6k-56" target="YpI31M13oUeQ6oVRcX6k-52">
          <mxGeometry relative="1" as="geometry">
            <Array as="points">
              <mxPoint x="645" y="470" />
              <mxPoint x="305" y="470" />
            </Array>
          </mxGeometry>
        </mxCell>
      </root>
    </mxGraphModel>
  </diagram>
</mxfile>
